<svg id="Component_9_2" data-name="Component 9 – 2" xmlns="http://www.w3.org/2000/svg" width="156" height="90.229" viewBox="0 0 156 90.229">
  <path id="Path_189" data-name="Path 189" d="M1011.095,810.326c-2.075,0-2.979-1.383-3.831-2.661l-6.385-9.629a1.857,1.857,0,0,1-.426-1.277v-5.108c0-.531.053-1.01.586-1.01h.16c5,0,7.661-1.7,7.661-4.789,0-3.511-2.714-4.2-5.108-4.2h-7.235V801.76h3.032c.532,0,.851.266.851.9v6.757c0,.639-.212.9-.957.9h-15.7c-.531,0-.851-.266-.851-.9v-6.757c0-.639.213-.9.957-.9h3.777V781.648h-3.777c-.744,0-.957-.266-.957-.9v-6.757c0-.639.319-.9.851-.9h21.494c9.2,0,12.5,5.374,12.5,11.811,0,4.682-2.872,10.215-8.352,10.907l-.426.053,2.447,3.511c1.171,1.7,1.863,2.394,4.151,2.394h2.713a.819.819,0,0,1,.9.852v6.278c0,1.224-.638,1.437-1.224,1.437Z" transform="translate(-982.897 -751.974)" fill="#422f21"/>
  <path id="Path_190" data-name="Path 190" d="M1070.552,795.583c0,.533-.372.8-.9.905-5.8,1.011-9.1-.266-10.588-4.2-1.276,2.766-5.107,4.842-9.629,4.842-5.427,0-9.47-2.394-9.47-8.46,0-5.692,5.107-8.193,10.109-8.193a16.833,16.833,0,0,1,7.554,1.808v-1.489c0-2.5-2.554-3.724-5.746-3.724a16,16,0,0,0-8.512,2.713c-.266.213-.745.372-.745-.319v-7.714a.645.645,0,0,1,.372-.638c2.235-1.277,5.746-2.394,11.226-2.394,5.534,0,11.705,2.767,11.705,10.428v6.438c0,1.49.159,2.979,2.713,2.979h1.012a.866.866,0,0,1,.9.9Zm-12.982-8.246c0-1.277-3.405-1.809-4.842-1.809-2.872,0-4.31.958-4.31,2.5,0,1.7,1.7,2.661,4.31,2.661,2.234,0,4.842-1.118,4.842-2.661Z" transform="translate(-1003.379 -750.407)" fill="#422f21"/>
  <path id="Path_191" data-name="Path 191" d="M1092.848,797.386c-.532,0-.851-.266-.851-.9v-6.118c0-.639.212-.906.957-.906h3.139V778.179h-3.139c-.744,0-.957-.266-.957-.9v-6.119c0-.639.319-.9.851-.9h10.428a1.121,1.121,0,0,1,1.17,1.277v17.928h3.14c.744,0,.958.267.958.906v6.118c0,.639-.32.9-.851.9Z" transform="translate(-1022.057 -750.958)" fill="#422f21"/>
  <path id="Path_192" data-name="Path 192" d="M1142.158,797.569a.866.866,0,0,1-.9-.9v-6.118a.866.866,0,0,1,.9-.9h2.181v-7.768c0-2.128-1.7-3.192-3.564-3.192a5.109,5.109,0,0,0-5.161,5.267v5.693h2.022a.866.866,0,0,1,.905.9v6.118a.866.866,0,0,1-.905.9h-13.567a.866.866,0,0,1-.9-.9v-6.118a.866.866,0,0,1,.9-.9h3.192V778.362h-3.139c-.745,0-.958-.266-.958-.9v-6.118c0-.638.319-.9.852-.9h8.247c.745,0,1.011.373,1.064.852l.9,6.916h.479c1.224-5.108,3.885-8.406,9.259-8.406,6.065,0,8.725,4.363,8.725,9.523v10.322h3.192a.866.866,0,0,1,.905.9v6.118a.866.866,0,0,1-.905.9Z" transform="translate(-1033.243 -750.795)" fill="#422f21"/>
  <path id="Path_193" data-name="Path 193" d="M1196.292,799.172c3.033,5.533-.532,13.194-9.47,13.567a21,21,0,0,1-7.289-1.064,1.011,1.011,0,0,1-.851-1.118l.532-7.342c.054-.638.266-1.064.959-.8a17.059,17.059,0,0,0,5.32.9c2.075-.106,3.512-.957,1.757-3.99l-10.11-17.292h-3.245c-.532,0-.852-.266-.852-.9v-6.119c0-.638.213-.9.958-.9h14.951c.745,0,.958.266.958.9v6.119c0,.638-.319.9-.851.9h-2.874l5.586,10.322,5.161-10.322h-3.245c-.532,0-.853-.266-.853-.9v-6.119c0-.638.213-.9.959-.9h12.4c.745,0,.958.266.958.9v6.119c0,.638-.319.9-.851.9h-2.927l-7.927,15.589Z" transform="translate(-1051.146 -752.344)" fill="#422f21"/>
  <path id="Path_194" data-name="Path 194" d="M1045.817,856.829a1.49,1.49,0,0,1-1.6-1.171l-1.6-4.469-.532.053a8.269,8.269,0,0,1-8.407,6.224c-6.011,0-12.449-3.883-12.449-14.258,0-9.683,6.651-14.152,11.811-14.152,4.895,0,7.928,2.5,8.673,6.7h.372v-9.348h-4.788c-.745,0-.958-.266-.958-.9V819.39c0-.639.319-.9.852-.9h12.343a.866.866,0,0,1,.9.9V848.9l2.5,6.491c.372.958-.266,1.437-.8,1.437Zm-3.458-13.886c0-3.565-3.086-5.374-6.172-5.267-2.98.053-5.906,1.915-5.906,5.586a5.707,5.707,0,0,0,6.651,5.905A5.976,5.976,0,0,0,1042.36,842.943Z" transform="translate(-996.659 -768.271)" fill="#422f21"/>
  <path id="Path_195" data-name="Path 195" d="M1102.387,847.556c0,.532-.372.8-.9.9-5.8,1.012-9.1-.266-10.587-4.2-1.278,2.766-5.108,4.842-9.63,4.842-5.427,0-9.469-2.394-9.469-8.46,0-5.693,5.107-8.193,10.109-8.193a16.83,16.83,0,0,1,7.554,1.808v-1.489c0-2.5-2.554-3.724-5.746-3.724a16,16,0,0,0-8.512,2.714c-.266.213-.745.373-.745-.319v-7.714a.646.646,0,0,1,.373-.639c2.234-1.276,5.746-2.394,11.225-2.394,5.534,0,11.706,2.767,11.706,10.428v6.438c0,1.49.16,2.979,2.713,2.979h1.011a.866.866,0,0,1,.9.9Zm-12.982-8.246c0-1.277-3.4-1.809-4.841-1.809-2.873,0-4.31.958-4.31,2.5,0,1.7,1.7,2.66,4.31,2.66,2.234,0,4.841-1.117,4.841-2.66Z" transform="translate(-1014.805 -769.061)" fill="#422f21"/>
  <path id="Path_196" data-name="Path 196" d="M1139.093,844.877c3.033,5.533-.532,13.194-9.47,13.567a21.006,21.006,0,0,1-7.289-1.064,1.012,1.012,0,0,1-.852-1.117l.532-7.342c.053-.638.266-1.064.958-.8a17.047,17.047,0,0,0,5.32.9c2.075-.106,3.512-.957,1.756-3.99l-10.109-17.292h-3.246c-.532,0-.851-.266-.851-.9v-6.118c0-.638.213-.9.957-.9h14.95c.745,0,.958.266.958.9v6.118c0,.639-.319.9-.851.9h-2.873l5.586,10.322,5.161-10.322h-3.245c-.532,0-.852-.266-.852-.9v-6.118c0-.638.213-.9.959-.9h12.4c.745,0,.958.266.958.9v6.118c0,.639-.319.9-.851.9h-2.926l-7.928,15.589Z" transform="translate(-1030.615 -768.749)" fill="#422f21"/>
  <path id="Path_197" data-name="Path 197" d="M1182.192,848.078a.531.531,0,0,1-.585-.213,10.008,10.008,0,0,0-8.459-4.15c-2.183,0-3.459.586-3.459,1.809,0,1.916,3.938,1.916,7.289,2.448,4.522.745,8.992,2.766,8.992,7.821,0,6.118-5.427,9.2-12.183,9.2-5.587,0-9.046-1.224-11.919-2.979a.694.694,0,0,1-.372-.638V854.2a.465.465,0,0,1,.319-.479l1.809-.585a.531.531,0,0,1,.585.213c1.969,2.66,6.385,4.256,9.365,4.256,2.181,0,4.1-.053,4.1-1.915,0-1.33-2.5-1.649-5.586-1.862-4.894-.319-11.172-1.49-11.172-8.088,0-5.479,4.469-9.151,11.013-9.151,6.172,0,9.9,1.277,12.556,3.192a.86.86,0,0,1,.319.692v6.544a.511.511,0,0,1-.372.479Z" transform="translate(-1046.792 -774.768)" fill="#422f21"/>
  <path id="Path_138" data-name="Path 138" d="M1099.836,740.156c.059.009,5.371,4.916,5.381,10.092a5.383,5.383,0,0,1-10.764,0C1094.462,745.241,1099.776,740.147,1099.836,740.156Z" transform="translate(-1022.938 -740.156)" fill="#422f21"/>
</svg>
